<svg xmlns="http://www.w3.org/2000/svg" viewBox="0 0 1670 1670"><defs><style>.cls-1{opacity:0.68;}.cls-2{fill:#eae7df;}.cls-3{fill:#f5f3ed;}</style></defs><g id="Layer_2" data-name="Layer 2"><g id="Layer_1-2" data-name="Layer 1"><g class="cls-1"><rect class="cls-2" width="1670" height="1670"/><circle class="cls-3" cx="411.5" cy="1246.5" r="411.5"/><path class="cls-3" d="M1670,123H1209.49A82.49,82.49,0,0,0,1127,205.49V843h1.11a165.53,165.53,0,0,0-1.11,19c0,116,121.55,210,271.5,210S1670,978,1670,862a165.53,165.53,0,0,0-1.11-19H1670Z"/><rect class="cls-3" x="823" y="1072" width="748" height="598" rx="78.27"/><path class="cls-3" d="M1064.13,1067.82,462.6,830.35c-43.43-17.14-52-74.86-15.45-103.89L953.57,324.25c36.56-29,90.84-7.6,97.7,38.57l95.11,639.68C1153.24,1048.68,1107.55,1085,1064.13,1067.82Z"/><circle class="cls-3" cx="225.5" cy="630.5" r="225.5"/></g></g></g></svg>