<svg xmlns="http://www.w3.org/2000/svg" viewBox="0 0 417.46 417.46"><defs><style>.cls-1{fill:#ff8d5b;}.cls-2{fill:none;}.cls-3{fill:#fff;}.cls-4{fill:#143f6e;}</style></defs><g id="Layer_2" data-name="Layer 2"><g id="Layer_1-2" data-name="Layer 1"><circle class="cls-1" cx="208.73" cy="208.73" r="208.73"/><path class="cls-2" d="M110.89,103.05a42.12,42.12,0,0,0,12.85,31.19,43.92,43.92,0,0,0,62.38,0A42.12,42.12,0,0,0,199,103.05V21.12a10.83,10.83,0,1,1,21.65,0v81.93a42.08,42.08,0,0,0,12.85,31.19,43.9,43.9,0,0,0,62.37,0,42.08,42.08,0,0,0,12.85-31.19V25.45a209,209,0,0,0-198.52-.75,20.5,20.5,0,0,1,.72,5.45Z"/><path class="cls-2" d="M330.34,39.08v64a63.9,63.9,0,0,1-8.89,33.22A68.72,68.72,0,0,1,297.72,160a63.5,63.5,0,0,1-33.06,8.9,62.82,62.82,0,0,1-36.79-11.32,66.83,66.83,0,0,1-18.08-18.34,66.59,66.59,0,0,1-18.11,18.36,62.69,62.69,0,0,1-36.75,11.3A62.86,62.86,0,0,1,121.82,160a67.69,67.69,0,0,1-23.68-23.7,63.91,63.91,0,0,1-8.9-33.22V37.58A208.48,208.48,0,0,0,0,208.73C0,324,93.45,417.46,208.73,417.46S417.46,324,417.46,208.73A208.43,208.43,0,0,0,330.34,39.08ZM263,219.35a67.81,67.81,0,0,1-23.72,23.73A63.62,63.62,0,0,1,206.18,252a62.89,62.89,0,0,1-33.09-8.9,67.89,67.89,0,0,1-23.7-23.72,62.71,62.71,0,0,1-8.89-32.16,11.93,11.93,0,0,1,3.31-8.87,10.59,10.59,0,0,1,7.51-3,10.82,10.82,0,0,1,9.32,5.28,11.86,11.86,0,0,1,1.51,6.08,43.84,43.84,0,0,0,44,43.65,43.87,43.87,0,0,0,44-44.18,10.23,10.23,0,0,1,10.24-10.24h1.17a10.24,10.24,0,0,1,10.24,10.24A63,63,0,0,1,263,219.35Z"/><path class="cls-3" d="M98.14,136.27A67.69,67.69,0,0,0,121.82,160a62.86,62.86,0,0,0,33.11,8.92,62.69,62.69,0,0,0,36.75-11.3,66.59,66.59,0,0,0,18.11-18.36,66.83,66.83,0,0,0,18.08,18.34,62.82,62.82,0,0,0,36.79,11.32,63.5,63.5,0,0,0,33.06-8.9,68.72,68.72,0,0,0,23.73-23.72,63.9,63.9,0,0,0,8.89-33.22v-64a208.48,208.48,0,0,0-21.65-13.63v77.6a42.08,42.08,0,0,1-12.85,31.19,43.9,43.9,0,0,1-62.37,0,42.08,42.08,0,0,1-12.85-31.19V21.12a10.83,10.83,0,1,0-21.65,0v81.93a42.12,42.12,0,0,1-12.85,31.19,43.92,43.92,0,0,1-62.38,0,42.12,42.12,0,0,1-12.85-31.19V30.15a20.5,20.5,0,0,0-.72-5.45A208.94,208.94,0,0,0,89.24,37.58v65.47A63.91,63.91,0,0,0,98.14,136.27Z"/><path class="cls-4" d="M261.63,175.9h-1.17a10.23,10.23,0,0,0-10.24,10.24,43.87,43.87,0,0,1-44,44.18,43.84,43.84,0,0,1-44-43.65,11.86,11.86,0,0,0-1.51-6.08,10.82,10.82,0,0,0-9.32-5.28,10.59,10.59,0,0,0-7.51,3,11.93,11.93,0,0,0-3.31,8.87,62.71,62.71,0,0,0,8.89,32.16,67.89,67.89,0,0,0,23.7,23.72,62.89,62.89,0,0,0,33.09,8.9,63.62,63.62,0,0,0,33.07-8.89A67.81,67.81,0,0,0,263,219.35a63,63,0,0,0,8.9-33.21A10.24,10.24,0,0,0,261.63,175.9Z"/></g></g></svg>