<svg xmlns="http://www.w3.org/2000/svg" viewBox="0 0 417.46 417.46"><defs><style>.cls-1{fill:#7bc091;}.cls-2{fill:none;}.cls-3{fill:#143f6e;}.cls-4{fill:#fff;}</style></defs><g id="Layer_2" data-name="Layer 2"><g id="Layer_1-2" data-name="Layer 1"><circle class="cls-1" cx="208.73" cy="208.73" r="208.73"/><path class="cls-2" d="M110.45,104a42.27,42.27,0,0,0,12.91,31.33,44.13,44.13,0,0,0,62.66,0A42.3,42.3,0,0,0,198.92,104V21.7A10.65,10.65,0,0,1,202.1,14a10.59,10.59,0,0,1,15.4,0,10.64,10.64,0,0,1,3.17,7.7V104a42.27,42.27,0,0,0,12.91,31.33,44.13,44.13,0,0,0,62.66,0A42.27,42.27,0,0,0,309.15,104V25.71A209,209,0,0,0,109.64,25a20.49,20.49,0,0,1,.81,5.78Z"/><path class="cls-2" d="M330.9,39.48V104A64.13,64.13,0,0,1,322,137.36a69.1,69.1,0,0,1-23.83,23.84,63.88,63.88,0,0,1-33.22,8.93,63,63,0,0,1-37-11.37,66.72,66.72,0,0,1-18.16-18.42,66.9,66.9,0,0,1-18.19,18.44,63,63,0,0,1-36.92,11.35,63.09,63.09,0,0,1-33.26-9,67.9,67.9,0,0,1-23.79-23.81A64.13,64.13,0,0,1,88.7,104V38A208.45,208.45,0,0,0,0,208.73C0,324,93.45,417.46,208.73,417.46S417.46,324,417.46,208.73A208.45,208.45,0,0,0,330.9,39.48Zm-62.07,211.1a10.68,10.68,0,0,1-7.54,3,10.86,10.86,0,0,1-9.37-5.3,11.81,11.81,0,0,1-1.51-6.1,44.31,44.31,0,0,0-75.6-30.91,42.86,42.86,0,0,0-12.87,31.44A10.29,10.29,0,0,1,151.65,253h-1.18a10.29,10.29,0,0,1-10.28-10.29,63.36,63.36,0,0,1,8.93-33.37A68.15,68.15,0,0,1,173,185.52a63.9,63.9,0,0,1,33.22-8.93,63.22,63.22,0,0,1,33.24,8.94,68.07,68.07,0,0,1,23.81,23.82,63,63,0,0,1,8.93,32.32A12,12,0,0,1,268.83,250.58Z"/><path class="cls-3" d="M239.41,185.53a63.22,63.22,0,0,0-33.24-8.94A63.9,63.9,0,0,0,173,185.52a68.15,68.15,0,0,0-23.83,23.83,63.36,63.36,0,0,0-8.93,33.37A10.29,10.29,0,0,0,150.47,253h1.18a10.29,10.29,0,0,0,10.29-10.29,44.06,44.06,0,0,1,44.23-44.38,44.06,44.06,0,0,1,44.24,43.85,11.81,11.81,0,0,0,1.51,6.1,10.86,10.86,0,0,0,9.37,5.3,10.68,10.68,0,0,0,7.54-3,12,12,0,0,0,3.32-8.91,63,63,0,0,0-8.93-32.32A68.07,68.07,0,0,0,239.41,185.53Z"/><path class="cls-4" d="M97.64,137.36a67.9,67.9,0,0,0,23.79,23.81,63.09,63.09,0,0,0,33.26,9,63,63,0,0,0,36.92-11.35,66.9,66.9,0,0,0,18.19-18.44A66.72,66.72,0,0,0,228,158.76a63,63,0,0,0,37,11.37,63.88,63.88,0,0,0,33.22-8.93A69.1,69.1,0,0,0,322,137.36,64.13,64.13,0,0,0,330.9,104V39.48a209.37,209.37,0,0,0-21.75-13.77V104a42.27,42.27,0,0,1-12.91,31.33,44.13,44.13,0,0,1-62.66,0A42.27,42.27,0,0,1,220.67,104V21.7A10.64,10.64,0,0,0,217.5,14a10.59,10.59,0,0,0-15.4,0,10.65,10.65,0,0,0-3.18,7.7V104A42.3,42.3,0,0,1,186,135.33a44.13,44.13,0,0,1-62.66,0A42.27,42.27,0,0,1,110.45,104V30.76a20.49,20.49,0,0,0-.81-5.78A208.82,208.82,0,0,0,88.7,38v66A64.13,64.13,0,0,0,97.64,137.36Z"/></g></g></svg>