<svg xmlns="http://www.w3.org/2000/svg" viewBox="0 0 417.46 417.46"><defs><style>.cls-1{fill:#56abc5;}.cls-2{fill:none;}.cls-3{fill:#fff;}.cls-4{fill:#143f6e;}</style></defs><g id="Layer_2" data-name="Layer 2"><g id="Layer_1-2" data-name="Layer 1"><circle class="cls-1" cx="208.73" cy="208.73" r="208.73"/><path class="cls-2" d="M109.3,103.23a42.62,42.62,0,0,0,12.79,31.64c8.79,8.9,19.08,13.27,31.47,13.35a42.65,42.65,0,0,0,31.63-12.94,42.55,42.55,0,0,0,13.21-31.46L199,20.94a11.15,11.15,0,0,1,11-11,10.74,10.74,0,0,1,7.73,3.4,10.72,10.72,0,0,1,3.15,7.77L220.3,104c-.08,12.49,4.1,22.84,12.79,31.64s19.08,13.27,31.46,13.35A42.68,42.68,0,0,0,296.19,136a42.59,42.59,0,0,0,13.21-31.47l.52-78.41a209,209,0,0,0-200.55-1,21.29,21.29,0,0,1,.42,4.36Z"/><path class="cls-2" d="M331.73,40.09l-.43,64.61a64.6,64.6,0,0,1-9.22,33.54,69.67,69.67,0,0,1-24.16,23.84,64.27,64.27,0,0,1-33.51,8.77,63.48,63.48,0,0,1-37.13-11.69,67.39,67.39,0,0,1-18.17-18.68,67.63,67.63,0,0,1-18.44,18.46,63.5,63.5,0,0,1-37.26,11.18A63.59,63.59,0,0,1,120,160.88a68.45,68.45,0,0,1-23.8-24.14,64.55,64.55,0,0,1-8.78-33.65l.43-64.53A208.48,208.48,0,0,0,0,208.73C0,324,93.45,417.46,208.73,417.46S417.46,324,417.46,208.73A208.4,208.4,0,0,0,331.73,40.09ZM282.37,223.28a5.33,5.33,0,0,1-5.37,5.3l-139.23-.92a5.33,5.33,0,0,1-5.3-5.37l.1-15.22a5.33,5.33,0,0,1,5.37-5.3l139.23.92a5.33,5.33,0,0,1,5.3,5.37Z"/><path class="cls-3" d="M96.18,136.74A68.45,68.45,0,0,0,120,160.88a63.59,63.59,0,0,0,33.43,9.24,63.5,63.5,0,0,0,37.26-11.18,67.63,67.63,0,0,0,18.44-18.46,67.39,67.39,0,0,0,18.17,18.68,63.48,63.48,0,0,0,37.13,11.69,64.27,64.27,0,0,0,33.51-8.77,69.67,69.67,0,0,0,24.16-23.84,64.6,64.6,0,0,0,9.22-33.54l.43-64.61a207.38,207.38,0,0,0-21.81-14l-.52,78.41A42.59,42.59,0,0,1,296.19,136,42.68,42.68,0,0,1,264.55,149c-12.38-.08-22.67-4.45-31.46-13.35S220.22,116.45,220.3,104l.55-82.88a10.72,10.72,0,0,0-3.15-7.77,10.66,10.66,0,0,0-15.51-.11A10.78,10.78,0,0,0,199,20.94l-.55,82.88a42.55,42.55,0,0,1-13.21,31.46,42.65,42.65,0,0,1-31.63,12.94c-12.39-.08-22.68-4.45-31.47-13.35a42.62,42.62,0,0,1-12.79-31.64l.49-73.75a21.29,21.29,0,0,0-.42-4.36A208.1,208.1,0,0,0,87.83,38.56l-.43,64.53A64.55,64.55,0,0,0,96.18,136.74Z"/><path class="cls-4" d="M277.17,202.69l-139.23-.92a5.33,5.33,0,0,0-5.37,5.3l-.1,15.22a5.33,5.33,0,0,0,5.3,5.37l139.23.92a5.33,5.33,0,0,0,5.37-5.3l.1-15.22A5.33,5.33,0,0,0,277.17,202.69Z"/></g></g></svg>